<svg xmlns="http://www.w3.org/2000/svg" width="17.452" height="22.056" viewBox="0 0 17.452 22.056"><defs><style>.a{fill:#f07f3c;}</style></defs><path class="a" d="M70.526,17.553a3.427,3.427,0,0,1-1.041-1.418A16.409,16.409,0,0,1,68.4,9.651c0-.008,0-.017,0-.025A6.258,6.258,0,0,0,64.715,3.95V2.457A2.458,2.458,0,0,0,62.262,0h-.2a2.458,2.458,0,0,0-2.453,2.457V3.95a6.258,6.258,0,0,0-3.684,5.7,16.409,16.409,0,0,1-1.086,6.484,3.427,3.427,0,0,1-1.041,1.418.628.628,0,0,0-.345.715.657.657,0,0,0,.648.505h4.736a3.327,3.327,0,0,0,6.653,0h4.736a.657.657,0,0,0,.648-.505A.628.628,0,0,0,70.526,17.553ZM60.9,2.457a1.163,1.163,0,0,1,1.161-1.163h.2a1.163,1.163,0,0,1,1.161,1.163V3.53a6.258,6.258,0,0,0-2.524,0V2.457Zm1.262,18.3a2.039,2.039,0,0,1-2.034-1.99h4.069A2.039,2.039,0,0,1,62.16,20.762Zm2.6-3.284H55.57a6.77,6.77,0,0,0,.339-.594,16.36,16.36,0,0,0,1.305-7.232,4.946,4.946,0,1,1,9.893,0c0,.008,0,.016,0,.024a16.327,16.327,0,0,0,1.305,7.206,6.78,6.78,0,0,0,.339.594Z" transform="translate(-53.434)"/></svg>