<svg xmlns="http://www.w3.org/2000/svg" width="19.963" height="19.963" viewBox="0 0 19.963 19.963"><defs><style>.a{fill:#f07f3c;}</style></defs><path class="a" d="M21.743,13l1.1-1.907a1,1,0,0,0-.364-1.365l-1.909-1.1v-2.2a1,1,0,0,0-1-1h-2.2l-1.1-1.908a1.007,1.007,0,0,0-.606-.466.993.993,0,0,0-.759.1L13,4.257l-1.909-1.1a1,1,0,0,0-1.365.366l-1.1,1.908h-2.2a1,1,0,0,0-1,1v2.2l-1.909,1.1a1,1,0,0,0-.364,1.366L4.255,13l-1.1,1.907a1,1,0,0,0,.364,1.366l1.909,1.1v2.2a1,1,0,0,0,1,1h2.2l1.1,1.909a1,1,0,0,0,1.366.364L13,21.742l1.909,1.1a1,1,0,0,0,1.365-.364l1.1-1.909h2.2a1,1,0,0,0,1-1v-2.2l1.909-1.1a1,1,0,0,0,.364-1.366ZM10.5,7.993A1.5,1.5,0,1,1,9,9.492a1.5,1.5,0,0,1,1.5-1.5Zm.3,9.594-1.6-1.2,6-8,1.6,1.2Zm4.7.4a1.5,1.5,0,1,1,1.5-1.5A1.5,1.5,0,0,1,15.5,17.987Z" transform="translate(-3.017 -3.018)"/></svg>