<svg xmlns="http://www.w3.org/2000/svg" width="22.056" height="22.056" viewBox="0 0 22.056 22.056"><defs><style>.a{fill-rule:evenodd;}</style></defs><g transform="translate(0 -2.25)"><path class="a" d="M0,2.985A.735.735,0,0,1,.735,2.25H2.941a.735.735,0,0,1,.713.557l.6,2.383H21.321a.735.735,0,0,1,.722.87L19.837,17.825a.735.735,0,0,1-.722.6H5.882a.735.735,0,0,1-.722-.6L2.955,6.084,2.368,3.72H.735A.735.735,0,0,1,0,2.985ZM4.561,6.661l1.93,10.293H18.5l1.93-10.293ZM7.352,18.425a2.941,2.941,0,1,0,2.941,2.941A2.941,2.941,0,0,0,7.352,18.425Zm10.293,0a2.941,2.941,0,1,0,2.941,2.941A2.941,2.941,0,0,0,17.645,18.425ZM7.352,19.895a1.47,1.47,0,1,0,1.47,1.47A1.47,1.47,0,0,0,7.352,19.895Zm10.293,0a1.47,1.47,0,1,0,1.47,1.47A1.47,1.47,0,0,0,17.645,19.895Z"/></g></svg>