<svg xmlns="http://www.w3.org/2000/svg" width="22.196" height="22.196" viewBox="0 0 22.196 22.196"><defs><style>.a{fill:#f07f3c;}</style></defs><path class="a" d="M11.1,0A11.1,11.1,0,1,0,22.2,11.1,11.111,11.111,0,0,0,11.1,0Zm0,21.329A10.231,10.231,0,1,1,21.329,11.1,10.243,10.243,0,0,1,11.1,21.329Z"/><path class="a" d="M64.67,56a8.632,8.632,0,0,0-6.78,3.265.434.434,0,0,0,.678.541,7.8,7.8,0,1,1-1.7,4.864,7.865,7.865,0,0,1,.151-1.538.434.434,0,0,0-.85-.17A8.671,8.671,0,1,0,64.67,56Z" transform="translate(-53.572 -53.572)"/><path class="a" d="M142.621,129.844a.434.434,0,0,0-.434.434v3.035a2.165,2.165,0,0,0,.867,1.733v4.87a1.3,1.3,0,0,0,2.6,0v-4.87a2.166,2.166,0,0,0,.867-1.733v-3.035a.434.434,0,0,0-.867,0v2.168h-.867v-2.168a.434.434,0,1,0-.867,0v2.168h-.867v-2.168A.434.434,0,0,0,142.621,129.844Zm2.168,10.071a.434.434,0,1,1-.867,0v-4.479a2.177,2.177,0,0,0,.867,0Zm-.434-5.3a1.3,1.3,0,0,1-1.3-1.3h2.6A1.3,1.3,0,0,1,144.355,134.613Z" transform="translate(-136.023 -124.215)"/><path class="a" d="M266.321,131.65a1.3,1.3,0,0,0,1.3-1.3v-5.195a2.178,2.178,0,0,0,1.084-1.956,4.314,4.314,0,0,0-.634-2.134,1.865,1.865,0,0,0-3.5,0,4.314,4.314,0,0,0-.635,2.134,2.178,2.178,0,0,0,1.084,1.956v5.195A1.3,1.3,0,0,0,266.321,131.65Zm.434-1.3a.434.434,0,1,1-.867,0v-4.9a2.953,2.953,0,0,0,.867,0Zm-.434-9.638c.331,0,.7.293,1.009.8a3.463,3.463,0,0,1,.508,1.684,1.521,1.521,0,0,1-3.035,0C264.8,122.159,265.569,120.712,266.321,120.712Z" transform="translate(-252.495 -114.65)"/><path class="a" d="M74.132,166.669h0a.434.434,0,1,0-.434-.434A.433.433,0,0,0,74.132,166.669Z" transform="translate(-70.503 -158.614)"/></svg>