<svg xmlns="http://www.w3.org/2000/svg" width="38" height="44.19" viewBox="0 0 38 44.19"><defs><style>.a{fill:#f07f3c;}</style></defs><g transform="translate(-782.188 -385.093)"><path class="a" d="M786.935,416.583a18.9,18.9,0,0,1-.193-24.834A18.5,18.5,0,0,1,801.9,385.1a18.142,18.142,0,0,1,13,5.839,18.944,18.944,0,0,1,.2,26.042c-.278-.417-.564-.827-.823-1.254a.366.366,0,0,1,.048-.331,17.352,17.352,0,0,0,3.158-5.407,15.854,15.854,0,0,0,.906-3.94,18.58,18.58,0,0,0,.151-2.578,17.378,17.378,0,0,0-1.383-6.188,17.966,17.966,0,0,0-2.149-3.719,19.7,19.7,0,0,0-2.379-2.539,16.533,16.533,0,0,0-3.732-2.523,17.209,17.209,0,0,0-4.724-1.528,17.329,17.329,0,0,0-10.856,1.635,19.188,19.188,0,0,0-3.563,2.41,16.807,16.807,0,0,0-4.048,5.225,15.854,15.854,0,0,0-1.642,5.192,18.478,18.478,0,0,0-.235,2.727,17.382,17.382,0,0,0,1.414,6.76,15.836,15.836,0,0,0,2.408,3.986.408.408,0,0,1,.035.579C787.432,415.84,787.2,416.2,786.935,416.583Z"/><path class="a" d="M840.485,426.635h-1.149a18.993,18.993,0,0,0-.331,1.937c-.095,1.326-.127,2.658-.177,3.987a3.463,3.463,0,0,0,.849,2.638,9.092,9.092,0,0,0,.975.72A13.283,13.283,0,0,1,842,437.074a1.444,1.444,0,0,1,.324,1.314c-.262,1.381-.509,2.765-.758,4.149a.5.5,0,0,1-.38.458c-.473.152-.926.365-1.523.607.317-1.544.6-2.995.915-4.44.213-.983.115-1.352-.73-1.823a4.77,4.77,0,0,1-2.559-3.659,23.931,23.931,0,0,1-.034-3.569,16.108,16.108,0,0,1,.172-2c.127-.868.3-1.729.471-2.589a.67.67,0,0,1,.77-.562c2.791.013,5.582.006,8.374.007.559,0,.807.175.9.726.184,1.053.385,2.107.492,3.17.133,1.305.223,2.618.249,3.929a4.716,4.716,0,0,1-2.231,4.2c-.269.182-.515.4-.787.577a1.165,1.165,0,0,0-.43,1.369c.2.937.424,1.869.634,2.8a1.347,1.347,0,0,1,0,.27l-1.6.156c-.184-.885-.375-1.765-.547-2.649-.075-.385-.122-.776-.167-1.166a2.124,2.124,0,0,1,1.117-2.035c.441-.314.914-.587,1.337-.923a2.693,2.693,0,0,0,1.01-2.267c-.045-1.486-.2-2.969-.312-4.453-.04-.515-.115-1.027-.166-1.541a.64.64,0,0,0-1.034-.512.525.525,0,0,0-.123.38c-.008,1.755-.005,3.51-.005,5.265,0,.567-.282.9-.765.909-.511.009-.809-.318-.81-.907q0-2.57,0-5.14v-.476h-1.659c0,.42.006.83,0,1.241-.025,1.46-.049,2.919-.085,4.378a.8.8,0,0,1-1.107.805c-.393-.126-.466-.455-.466-.817q0-2.57,0-5.14Z" transform="translate(-45.889 -33.256)"/><path class="a" d="M863.173,549.513a7.054,7.054,0,0,0-1.519-4.383,6.6,6.6,0,0,0-4.574-2.605,6.821,6.821,0,0,0-6.3,2.25c-.424.455-.764.987-1.156,1.472a.894.894,0,0,1-1.306.129,1.024,1.024,0,0,1-.28-1.351,8.994,8.994,0,0,1,5.716-4.374,9.635,9.635,0,0,1,3.176-.265,8.537,8.537,0,0,1,4.8,1.982,9.226,9.226,0,0,1,3.114,4.539c.2.666.293,1.362.445,2.09.3-.378.57-.748.874-1.088a2.559,2.559,0,0,1,.648-.549.925.925,0,0,1,1.162.291,1.075,1.075,0,0,1-.022,1.337q-1.216,1.508-2.435,3.015c-.128.159-.272.306-.387.474a1.054,1.054,0,0,1-1.473.113c-1.052-.841-2.085-1.705-3.14-2.542a1.667,1.667,0,0,1-.741-.932.972.972,0,0,1,.463-1.044,1.067,1.067,0,0,1,1.28.144C862.044,548.643,862.582,549.05,863.173,549.513Z" transform="translate(-54.812 -129.509)"/><path class="a" d="M826.2,582.023c-.345.439-.631.847-.963,1.213-.3.334-.545.756-1.117.738a.936.936,0,0,1-.859-.522.922.922,0,0,1,.031-1.058q.714-.94,1.451-1.862c.427-.531.888-1.034,1.3-1.573a1.051,1.051,0,0,1,1.671-.269c1.067.844,2.1,1.73,3.173,2.565a1.335,1.335,0,0,1,.665,1.177.971.971,0,0,1-1.452.775c-.484-.324-.932-.7-1.4-1.053a1.423,1.423,0,0,0-.519-.279c.151.6.285,1.206.456,1.8a6.248,6.248,0,0,0,2,2.979,6.993,6.993,0,0,0,3.616,1.706,6.866,6.866,0,0,0,4.42-.746,7.666,7.666,0,0,0,2.659-2.417,1.075,1.075,0,0,1,1.718-.134.894.894,0,0,1,.068,1.108,11.345,11.345,0,0,1-1.337,1.739,9.258,9.258,0,0,1-9.739,1.979,8.556,8.556,0,0,1-2.471-1.461,9.067,9.067,0,0,1-3.249-5.522C826.281,582.64,826.247,582.375,826.2,582.023Z" transform="translate(-34.132 -161.236)"/><path class="a" d="M918.12,427.353v15.483c-.457-.121-.88-.242-1.307-.344a.411.411,0,0,1-.364-.483c.015-2.307.008-4.615.008-6.922q0-4.331,0-8.663a5,5,0,0,1,.087-.892.725.725,0,0,1,.975-.545,13.64,13.64,0,0,1,2.131,1.308,8.723,8.723,0,0,1,2.487,3.134,10.1,10.1,0,0,1,.881,3.312,9.769,9.769,0,0,1-1.152,5.407c-.306.621-.644,1.228-.921,1.862A4.42,4.42,0,0,0,921,443.23c.093.291.135.6.225,1.01a7.227,7.227,0,0,0-1.292-.671c-.706-.2-.842-.716-.9-1.306a6.318,6.318,0,0,1,.871-3.838,11.187,11.187,0,0,0,1.422-3.435,7.468,7.468,0,0,0-1.1-5.5A6.7,6.7,0,0,0,918.12,427.353Z" transform="translate(-111.994 -33.224)"/></g></svg>