<svg xmlns="http://www.w3.org/2000/svg" width="58.115" height="48.041" viewBox="0 0 58.115 48.041"><defs><style>.a{fill:#b0d257;}.b{fill:#4b9952;}</style></defs><g transform="translate(-684.276 1178.764)"><path class="a" d="M684.276-1139.344l2.8-15.357,6.438-11.634,10.286-8.514,11.009-3.916-12.722,15.628-5.005,7.687-7.815,9.32Z" transform="translate(0)"/><path class="b" d="M711.576-1085.324a2.155,2.155,0,0,0,2.222-2.056,2.136,2.136,0,0,0-2.111-2.263,2.117,2.117,0,0,0-2.216,2.046,2.141,2.141,0,0,0,2.1,2.273" transform="translate(-19.35 -68.453)"/><path class="b" d="M702.592-1059.376a1.272,1.272,0,0,0-1.228-1.194,1.281,1.281,0,0,0-1.191,1.231,1.241,1.241,0,0,0,1.227,1.183,1.238,1.238,0,0,0,1.192-1.219" transform="translate(-12.211 -90.785)"/><path class="b" d="M725.45-1113.622a2.525,2.525,0,0,0,2.412,2.574,2.508,2.508,0,0,0,2.6-2.388,2.554,2.554,0,0,0-2.469-2.637,2.555,2.555,0,0,0-2.547,2.451" transform="translate(-31.625 -48.153)"/><path class="b" d="M748.91-1134.447a2.229,2.229,0,0,0-2.174-2.146,2.219,2.219,0,0,0-2.187,2.236,2.218,2.218,0,0,0,2.172,2.143,2.228,2.228,0,0,0,2.189-2.233" transform="translate(-46.295 -32.392)"/><path class="b" d="M799.225-1146.4a2.229,2.229,0,0,0-2.174-2.146,2.219,2.219,0,0,0-2.187,2.236,2.218,2.218,0,0,0,2.172,2.143,2.228,2.228,0,0,0,2.189-2.233" transform="translate(-84.942 -23.211)"/><path class="b" d="M788.549-1117.64a2.785,2.785,0,0,0-2.716-2.681,2.772,2.772,0,0,0-2.732,2.794,2.771,2.771,0,0,0,2.714,2.677,2.783,2.783,0,0,0,2.735-2.79" transform="translate(-75.907 -44.89)"/><path class="b" d="M769.481-1148.713a1.213,1.213,0,0,0-1.169-1.226,1.2,1.2,0,0,0-1.25,1.143,1.232,1.232,0,0,0,1.166,1.238,1.242,1.242,0,0,0,1.253-1.155" transform="translate(-63.587 -22.14)"/><path class="b" d="M841-1157.172a1.213,1.213,0,0,0-1.169-1.226,1.2,1.2,0,0,0-1.25,1.143,1.232,1.232,0,0,0,1.166,1.238,1.243,1.243,0,0,0,1.253-1.155" transform="translate(-118.524 -15.642)"/><path class="a" d="M686.613-1084.758l9.378-12.036,9.048-6.5,9.71-3.43,9.483-.625,6.3.592-23.487,12.214Z" transform="translate(-1.795 -54.856)"/><path class="a" d="M772.231-1008.79l-13.928,6.234-11.038,1.5-10.185-1.523-8.669-3.894-5.287-3.477,26.472.224Z" transform="translate(-29.84 -129.663)"/></g></svg>