<svg xmlns="http://www.w3.org/2000/svg" width="46.3" height="43.757" viewBox="0 0 46.3 43.757"><defs><style>.a{fill:#f07f3c;}</style></defs><path class="a" d="M2083.4,609.619c-.163-.008-.266-.011-.37-.018-.54-.035-.763-.268-.765-.8a5.762,5.762,0,1,1,11.484.692,6.479,6.479,0,0,1-1.608,3.887c.231.2.473.393.7.6a11.318,11.318,0,0,1,2.992,4.977,22.24,22.24,0,0,1,.963,7.625c-.01.313-.076.624-.12.96h2.9v-.491q0-4.137,0-8.274a2.464,2.464,0,0,1,2.686-2.7q3.73,0,7.46,0a2.456,2.456,0,0,1,2.616,2.6q.007,3.843,0,7.686a2.448,2.448,0,0,1-2.553,2.565c-1.084,0-2.168,0-3.277,0-.226,1.144.391,2.486-.858,3.362a8.441,8.441,0,0,1,.924,3.522c.015.96-.086,1.922-.1,2.883a11.062,11.062,0,0,0,.1,1.244c.017.18.052.357.073.537.133,1.115-.259,1.493-1.238,1.4-.325-.03-.348.174-.4.41a5.764,5.764,0,0,1-11.268,0c-.072-.318-.181-.41-.5-.409q-6.669.015-13.338,0c-.3,0-.453.036-.5.392-.1.791-.444,1-1.222.821l-.609-.14a5.241,5.241,0,0,1-3.076,3.049,4.991,4.991,0,0,1-3.151.137c-2.4-.662-3.7-2.491-3.86-5.495-.287-.072-.59-.14-.888-.226a.677.677,0,0,1-.521-.9,6.783,6.783,0,0,1,6.218-5.174.589.589,0,0,0,.657-.536c.247-.961.541-1.91.823-2.862.159-.536.5-.769.908-.638s.544.488.4,1c-.3,1.071-.628,2.136-.911,3.213a.741.741,0,0,0,.134.586c1.522,1.732,3.067,3.443,4.6,5.167.416.468.924.127,1.517.311A21.693,21.693,0,0,1,2079.3,623.4c-.659,0-1.237-.014-1.813.015-.085,0-.2.2-.234.319-.4,1.341-.785,2.686-1.175,4.029-.025.087-.048.174-.079.259a.663.663,0,0,1-.842.478.651.651,0,0,1-.446-.859c.152-.6.336-1.187.507-1.779l.708-2.466c-.259,0-.475.006-.69,0-.528-.017-.785-.26-.789-.777-.008-1.16-.013-2.321,0-3.481a1.014,1.014,0,0,1,1.447-1.06q2.156.665,4.286,1.412a3.915,3.915,0,0,0,1.728.182c.944-.092,1.892-.152,2.836-.248a1.31,1.31,0,0,0,.563-.216,2.807,2.807,0,0,0,1.569-2.822,5.119,5.119,0,0,1,.216-1.373,4.8,4.8,0,0,1-2.92-1.951A4.694,4.694,0,0,1,2083.4,609.619Zm6.159,21.6h2.674c.874,0,1.748-.01,2.622.01a.644.644,0,0,1,.69.676c0,.393-.252.635-.7.668-.135.01-.271.005-.407.005h-4.9v.554q0,2.079,0,4.159c0,1.123-.362,1.491-1.49,1.5-1.778.008-3.556,0-5.334,0h-1.6c.2.48.4.9.548,1.333a.519.519,0,0,0,.591.4c2.984-.013,5.967-.008,8.951-.008h.688c.5-3.259,2.181-5.58,5.375-6.5,3.178-.914,5.837.134,8,2.68a8.519,8.519,0,0,0-.788-3.734.583.583,0,0,0-.617-.388c-1.853.016-3.707.009-5.56.006-.18,0-.407.046-.53-.044a1.263,1.263,0,0,1-.5-.605.56.56,0,0,1,.471-.665,1.958,1.958,0,0,1,.492-.043q2.305,0,4.611,0h1.718c.291,0,.525-.1.535-.421.02-.612.006-1.225.006-1.818a.643.643,0,0,0-.134-.046q-4.407,0-8.815,0a.561.561,0,0,0-.349.151,3.646,3.646,0,0,1-2.4,1.017c-1.082.059-2.167.073-3.251.068-.417,0-.578.168-.588.549C2089.554,630.867,2089.557,631.015,2089.557,631.223Zm-8.844-7.826a24.914,24.914,0,0,0-1.149,4.705,19.27,19.27,0,0,0,.956,9.068.438.438,0,0,0,.294.252c.372.031.747.012,1.134.012.036-.2.062-.362.1-.523a2.7,2.7,0,0,1,1.777-2.209c.443-.149.5-.361.51-.77a46.5,46.5,0,0,1,.188-4.819,4.732,4.732,0,0,1,2.85-3.951c.162-.073.328-.134.52-.211l-.46-1.724a10.388,10.388,0,0,1-1.155.162c-.857.022-1.716.007-2.574.007Zm24.548,17.1a6.029,6.029,0,0,0-6.469-5.417c-2.862.239-5.556,2.913-5.438,5.417Zm-9.869-15.71a1.106,1.106,0,0,0,.033-.189,17.608,17.608,0,0,0-1.539-6.872,8.014,8.014,0,0,0-2.642-3.263.634.634,0,0,0-.471-.088c-.676.2-1.343.422-2.009.651-.112.039-.264.13-.288.224-.12.472-.2.953-.314,1.5.258-.106.42-.181.588-.241a2.281,2.281,0,0,1,2.436.486,2.2,2.2,0,0,1,.706,2.294,2.893,2.893,0,0,1-1.241,1.668c-.583.4-1.187.771-1.768,1.176a.484.484,0,0,0-.2.375c.148.676.323,1.346.52,2.009a.454.454,0,0,0,.334.258C2091.48,624.8,2093.423,624.792,2095.392,624.792Zm.01,1.36h-.479q-2.508,0-5.015,0a9.442,9.442,0,0,0-1.128.023,3.32,3.32,0,0,0-2.9,3.076c-.191,1.682-.135,3.392-.186,5.09,0,.024.03.05.045.074h2.388a.4.4,0,0,0,.035-.08c.01-1.144.006-2.289.031-3.433.033-1.5.638-2.071,2.15-2.085,1.023-.009,2.051.006,3.067-.086A2.115,2.115,0,0,0,2095.4,626.153Zm5.551,1.418h2.028q3.387,0,6.773,0c.642,0,1.149-.318,1.188-.873.061-.861.016-1.73.016-2.6h-10.006Zm-11.063-14.28c.206-.113.351-.182.485-.267a4.9,4.9,0,0,0,1.876-5.31,4.354,4.354,0,0,0-8.547.53h.49c1.325,0,2.651,0,3.976,0,1.238,0,1.713.484,1.718,1.733,0,.422,0,.843,0,1.265Zm-11.8,28.381.07-.1a4.381,4.381,0,0,0-.29-.409c-1.423-1.6-2.888-3.159-4.255-4.8a1.687,1.687,0,0,0-1.889-.607c-.073.017-.148.028-.221.046a5.509,5.509,0,0,0-3.946,3.448Zm22.851-21.8h10.025c.006-.107.014-.18.014-.253,0-.361.012-.723,0-1.084a1.1,1.1,0,0,0-1.137-1.1c-.271-.008-.542,0-.813,0q-3.433,0-6.866,0a1.087,1.087,0,0,0-1.214,1.007C2100.922,618.91,2100.944,619.376,2100.944,619.875Zm-5.857,22.036a4.368,4.368,0,0,0,4.4,3.56c2.016-.042,4.07-1.79,4.151-3.56Zm-18.9.718-7.276-1.673a3.762,3.762,0,0,0,2.772,3.872A3.8,3.8,0,0,0,2076.183,642.629Zm34.776-19.946V621.3h-9.985v1.385ZM2084.826,609.6a3.324,3.324,0,0,0,3.39,4.128c.226-.018.319-.088.317-.322-.007-1.173,0-2.347-.015-3.52,0-.1-.155-.272-.24-.274C2087.123,609.6,2085.967,609.6,2084.826,609.6Zm-.985,12.433c.891,0,1.732,0,2.572-.006a.683.683,0,0,0,.325-.135c1.012-.652,2.03-1.3,3.025-1.973a2.778,2.778,0,0,0,.712-.735.846.846,0,0,0-.1-1.084.92.92,0,0,0-1.05-.332,2.638,2.638,0,0,0-.765.455c-.844.7-1.654,1.451-2.514,2.133a2.539,2.539,0,0,1-1.006.408,9.042,9.042,0,0,1-1.2.117Zm4.3,15.38v-1.558c-1.182,0-2.337-.055-3.484.019a1.385,1.385,0,0,0-1.272,1.539Zm-9.155-15.4.274-1.414-3.419-1.125v2.539Zm3.435.022v-1.06a12.591,12.591,0,0,0-1.591.181c-.17.04-.358.34-.394.546-.051.292.213.338.462.335C2081.382,622.034,2081.862,622.039,2082.424,622.039Z" transform="translate(-2066.044 -603.072)"/></svg>