<svg xmlns="http://www.w3.org/2000/svg" width="41.383" height="41.38" viewBox="0 0 41.383 41.38"><defs><style>.a{fill:#f07f3c;}</style></defs><g transform="translate(-1082.022 -398.077)"><path class="a" d="M1148.406,422.72l-1.06-1.025c1.209-1.2,2.405-2.407,3.617-3.594a.938.938,0,0,0,.3-.74q-.015-4.667,0-9.334a2.89,2.89,0,0,1,1.941-2.912,2.74,2.74,0,0,1,2.167.183c.021-.409.042-.775.059-1.141a2.781,2.781,0,0,1,3.933-2.365c.035.017.075.024.186.06,0-.352-.008-.68,0-1.008a2.736,2.736,0,0,1,5.184-1.248c.033.058.057.122.087.182s.049.091.1.188c.272-.274.521-.528.775-.778a3.62,3.62,0,0,1,5.236.024,3.662,3.662,0,0,1,.221,4.705c-.33.4-.7.776-1.078,1.186a2.775,2.775,0,0,1,1.816,3.149,4.6,4.6,0,0,0-2.683,5.359,3.313,3.313,0,0,1-3.089,1c.039.13.058.215.09.295a2.757,2.757,0,0,1-2.491,3.849c-.323.014-.647,0-.97,0-3.367,0-6.735,0-10.1-.007a.89.89,0,0,0-.7.3c-1.1,1.114-2.207,2.212-3.307,3.322A2.058,2.058,0,0,0,1148.406,422.72ZM1159.551,416c-1.439,0-2.812,0-4.185,0a.705.705,0,0,0-.419.073c-.44.384-.854.8-1.3,1.222.109.054.131.075.153.075,3.3,0,6.6.009,9.9-.009a1.58,1.58,0,0,0,.785-.265,1.291,1.291,0,0,0,.53-1.417,1.349,1.349,0,0,0-1.111-1.04c-.078-.017-.162-.01-.241-.024a.711.711,0,0,1-.662-.731.687.687,0,0,1,.747-.639c1.01-.01,2.021,0,3.031-.008a2.894,2.894,0,0,0,.64-.064,1.405,1.405,0,0,0,1.083-1.42,1.352,1.352,0,0,0-1.209-1.256,2.343,2.343,0,0,1-.357-.067.63.63,0,0,1-.479-.666.622.622,0,0,1,.522-.63,2.45,2.45,0,0,1,.482-.033c.619-.009,1.24.016,1.857-.027a1.322,1.322,0,0,0,1.255-1.292,1.414,1.414,0,0,0-1.2-1.406,4.277,4.277,0,0,0-.644-.037c-.353,0-.678-.044-.84-.42-.171-.4.041-.663.3-.924.617-.621,1.271-1.212,1.829-1.882a2.221,2.221,0,0,0-1.33-3.624,2.164,2.164,0,0,0-1.987.649c-.6.582-1.175,1.187-1.76,1.782a.71.71,0,0,1-.839.212.685.685,0,0,1-.413-.719c0-.148,0-.3,0-.444a1.483,1.483,0,0,0-1.45-1.528,1.384,1.384,0,0,0-1.3,1.542c0,1,0,1.993,0,2.99,0,.623-.2.927-.626.966-.442.041-.678-.207-.781-.822-.011-.066-.016-.134-.032-.2a1.339,1.339,0,0,0-2.056-.778,1.526,1.526,0,0,0-.65,1.359q0,1.435,0,2.869c0,.686-.2,1-.645,1.032-.424.031-.656-.247-.762-.9a1.305,1.305,0,0,0-.877-1.068,1.266,1.266,0,0,0-1.351.269,1.652,1.652,0,0,0-.51,1.349q.005,3.94,0,7.879v.464c.438-.433.809-.775,1.146-1.148a.879.879,0,0,0,.219-.522c.02-1.023.01-2.047.01-3.071v-1.145h1.4v3.13c.656-.658,1.194-1.287,1.823-1.805a2.382,2.382,0,0,0,.946-2.269,24.46,24.46,0,0,1-.018-2.506h1.406v2.414c.92-.919,1.771-1.761,2.606-2.617a.636.636,0,0,0,.125-.4c.013-.633.006-1.266.006-1.9v-.951h1.389v1.649l.092.042,2.8-2.8,1.062.976-2.906,2.877h1.681v1.379h-.455c-.781,0-1.563-.017-2.343.011a.98.98,0,0,0-.592.245c-.76.725-1.495,1.477-2.236,2.221a3.571,3.571,0,0,0-.224.286h2.381v1.373c-.943,0-1.86.046-2.769-.014a1.942,1.942,0,0,0-1.787.729c-.516.618-1.131,1.153-1.7,1.726-.079.08-.148.171-.279.322h3.112c.008.173.017.305.018.437C1159.553,415.362,1159.551,415.655,1159.551,416Z" transform="translate(-54.763)"/><path class="a" d="M1102.775,560.089h19.515c.978,0,1.163.2,1.121,1.161a14.259,14.259,0,0,1-4.18,9.7,13.965,13.965,0,0,1-8.206,4.145,18.985,18.985,0,0,1-2.535.167c-3.839.017-7.677,0-11.515.011a14.873,14.873,0,0,1-7.084-1.628,14.516,14.516,0,0,1-7.842-12.56c-.023-.749.21-1,.968-1Zm19.235,1.417h-38.55a12.233,12.233,0,0,0,1.808,5.953,12.889,12.889,0,0,0,11.384,6.425c4.055.051,8.11.015,12.165.008a13.128,13.128,0,0,0,11.323-6.328A12.679,12.679,0,0,0,1122.01,561.506Z" transform="translate(-0.021 -135.819)"/><path class="a" d="M1089.613,491.018c0,.621,0,1.224,0,1.827,0,.646-.257.9-.909.906q-1.171.009-2.343,0c-.636-.006-.878-.25-.883-.881-.005-.6,0-1.207,0-1.844-.349-.026-.665-.045-.981-.075a2.736,2.736,0,0,1-.079-5.437.621.621,0,0,0,.61-.448,2.738,2.738,0,0,1,5.055.054.533.533,0,0,0,.519.385,2.737,2.737,0,0,1-.072,5.451C1090.236,490.985,1089.943,491,1089.613,491.018Zm-2.075-1.434v0c.956,0,1.912.029,2.867-.009a1.308,1.308,0,0,0,1.26-1.325,1.342,1.342,0,0,0-1.2-1.382,4.4,4.4,0,0,0-.564-.028c-.729-.007-.9-.15-1-.865a1.369,1.369,0,0,0-2.7-.078c-.194.91-.223.931-1.175.943a2.813,2.813,0,0,0-.522.046,1.3,1.3,0,0,0-1.013.888,1.327,1.327,0,0,0,1.147,1.792C1085.6,489.625,1086.568,489.584,1087.537,489.584Zm-.651,1.451v1.3h1.325v-1.3Z" transform="translate(0 -71.535)"/><path class="a" d="M1103.028,408.746a10.2,10.2,0,0,1,1.27-.6,3.128,3.128,0,0,1,3.645,1.349,3.065,3.065,0,0,1-.6,3.957,2.286,2.286,0,0,0-.884,1.664,3.352,3.352,0,0,1-3.114,2.8,3.435,3.435,0,0,1-3.469-2.244,5.163,5.163,0,0,1-.222-1.222.662.662,0,0,0-.312-.559,4.276,4.276,0,0,1-1.484-1.5,3.166,3.166,0,0,1,4.634-4.027Zm-2.29.331a2,2,0,0,0-1.744,1.273,1.772,1.772,0,0,0,.59,1.992,5.845,5.845,0,0,0,.582.434,1.525,1.525,0,0,1,.866,1.659,1.2,1.2,0,0,0,.03.32,2.055,2.055,0,0,0,2.018,1.79,1.923,1.923,0,0,0,2.011-1.717,2.641,2.641,0,0,1,1.274-2.352,1.69,1.69,0,0,0,.27-2.446,1.783,1.783,0,0,0-2.461-.32c-.166.115-.322.243-.485.363-.479.353-.684.359-1.16.021a8.5,8.5,0,0,0-.749-.546C1101.449,409.362,1101.087,409.231,1100.739,409.077Z" transform="translate(-12.993 -8.135)"/><path class="a" d="M1278.3,496.733a4.825,4.825,0,1,1,4.778,4.834A4.814,4.814,0,0,1,1278.3,496.733Zm1.387,0a3.441,3.441,0,1,0,3.462-3.421A3.445,3.445,0,0,0,1279.69,496.731Z" transform="translate(-164.547 -78.676)"/><path class="a" d="M1237.094,537.276h-1.312c-.335-.988-.8-1.4-1.509-1.354a1.442,1.442,0,0,0-1.315,1.37h-1.3a2.66,2.66,0,0,1,2.552-2.747A2.76,2.76,0,0,1,1237.094,537.276Z" transform="translate(-125.431 -114.399)"/><path class="a" d="M1312.44,429.347v-1.3c.938-.3,1.33-.7,1.354-1.385s-.364-1.114-1.373-1.474c0-.312,0-.634,0-.955,0-.106.009-.212.014-.315a2.69,2.69,0,0,1,2.737,2.642A2.731,2.731,0,0,1,1312.44,429.347Z" transform="translate(-193.15 -21.658)"/><path class="a" d="M1082.117,446.488v-1.327h1.334v1.327Z" transform="translate(-0.079 -39.472)"/><path class="a" d="M1090.626,463.481v-1.327h1.327v1.327Z" transform="translate(-7.213 -53.717)"/><path class="a" d="M1201.584,540.305v-1.324h1.339v1.324Z" transform="translate(-100.232 -118.123)"/><path class="a" d="M1176.023,403.768v-1.331h1.326v1.331Z" transform="translate(-78.803 -3.654)"/><path class="a" d="M1297.479,508.977a2.064,2.064,0,1,1-.038,4.128,2.064,2.064,0,0,1,.038-4.128Zm.665,2.05a.7.7,0,0,0-.718-.666.681.681,0,0,0,.069,1.361A.707.707,0,0,0,1298.144,511.027Z" transform="translate(-178.883 -92.97)"/></g></svg>