<svg xmlns="http://www.w3.org/2000/svg" width="46.39" height="46.343" viewBox="0 0 46.39 46.343"><defs><style>.a{fill:#f07f3c;}</style></defs><path class="a" d="M2134.52,262.821c.292-.313.556-.622.847-.9a1.924,1.924,0,0,1,2.448-.231,7.2,7.2,0,0,1,.84.683c1.538,1.4,3.17,2.711,4.585,4.226a18.676,18.676,0,0,1-14.136,31.516,18.619,18.619,0,0,1-12.219-5.017c-1.176-1.059-2.354-2.115-3.545-3.157a2.022,2.022,0,0,1-.27-3.151c.058-.069.11-.142.18-.234a10.615,10.615,0,0,1-3.327-10.327.675.675,0,0,1,.793-.569.652.652,0,0,1,.546.757c-.051.569-.17,1.132-.2,1.7a9,9,0,0,0,3.023,7.341.633.633,0,0,0,.115.059c.131-.144.271-.3.408-.449s.276-.314.33-.376a27.409,27.409,0,0,1-1.8-2.593,8.043,8.043,0,0,1,2.4-10.166,8.353,8.353,0,0,1,.909-.586c.833-.446.841-.445.741-1.46a8.993,8.993,0,0,0-4.053,2.839c-.3.372-.562.782-.835,1.178-.3.433-.68.553-1.028.317a.7.7,0,0,1-.135-1.035,10.4,10.4,0,0,1,5.874-4.673.984.984,0,0,0,.694-.706,10.371,10.371,0,0,1,8.813-7.24,10.149,10.149,0,0,1,7.69,2.07c.061.045.121.09.184.132A1.053,1.053,0,0,0,2134.52,262.821Zm-2.88,30.547c-.11.009-.155.01-.2.017-.539.093-.827-.04-.945-.437s.071-.691.557-.889c.362-.148.732-.276,1.091-.432a17.948,17.948,0,0,0,7.431-6.142,16.982,16.982,0,0,0-2.025-22.205c-.679-.652-.967-.658-1.593.04-1.8,2.008-3.59,4.027-5.407,6.022a1.086,1.086,0,0,0-.31,1.215c.157.5-.018,1.11.149,1.6a7.082,7.082,0,0,0,.888,1.437,1.846,1.846,0,0,0,.218.332.959.959,0,0,1-.294,1.641c-1.053.409-2.059,1.04-3.285.743-.059.334-.107.614-.166.95l.264-.14a1.105,1.105,0,0,1,1.7.491c.214.363.434.724.628,1.1a1.045,1.045,0,0,1-.4,1.515c-.381.243-.776.462-1.171.682a1.076,1.076,0,0,1-1.636-.454c-.237-.4-.466-.8-.708-1.217-.337.211-.633.357-.736.779-.045.186-.395.3-.611.44-.1.064-.281.087-.308.168-.176.521-.291,1.063-.486,1.575a1.379,1.379,0,0,1-.478.537,4.805,4.805,0,0,1-.7.378,3.787,3.787,0,0,1-1,.5c-.929.154-1.875.215-2.812.319a1.169,1.169,0,0,1-1.285-.565c-1.3,1.449-2.58,2.869-3.846,4.3-.392.444-.332.866.164,1.291a16.148,16.148,0,0,0,9.181,3.956,35.232,35.232,0,0,0,4.279-.059c.522-.016.859.164.923.58s-.22.71-.737.782a17.8,17.8,0,0,1-6.245-.183c-.669-.143-1.333-.313-2.041-.482a17.268,17.268,0,0,0,22.821-25.65,18.739,18.739,0,0,1,1.592,9.247c.419.034.8.043,1.164.1a1.046,1.046,0,0,1,.992,1.177,14.363,14.363,0,0,1-.111,1.441,1.083,1.083,0,0,1-1.29,1.017c-.345-.027-.695-.029-1.035-.085-.319-.052-.426.077-.545.361-.511,1.218-1.062,2.419-1.6,3.626-.051.113-.1.225-.163.352.227.035.406.054.583.09a1.009,1.009,0,0,1,.9,1.073,11.862,11.862,0,0,1-.135,1.619,1.035,1.035,0,0,1-1.182.928c-.331-.016-.66-.057-.991-.076-.568-.033-1.123-.089-1.4-.734a19.24,19.24,0,0,1-5.364,4.252c.788.032,1.255.311,1.4.982.4-.135.79-.173.976.224a.915.915,0,0,1-.028.744c-.235.395-.63.314-1.008.129-.036.256-.057.494-.106.726a1.024,1.024,0,0,1-1.135.871c-.466-.026-.933-.061-1.4-.113a1.089,1.089,0,0,1-1.075-1.322C2131.577,294.158,2131.606,293.785,2131.64,293.367Zm-12.333-10.859c.558,0,1.027.037,1.489-.007a2.734,2.734,0,0,0,2.688-2.826c.027-.6.2-.732.776-.937a4.167,4.167,0,0,0,1.443-.764c1.215-1.129.766-2.6.738-4-.345.015-.631.044-.916.037a3.346,3.346,0,0,0-2.42.8c-.367.326-.672.288-1.073-.112-1.03-1.029-2.279-.879-3.533-.754,0,.452.008.857,0,1.262a3.278,3.278,0,0,0,1.1,2.788.708.708,0,0,1,.134.941,3.267,3.267,0,0,0-.409,1.083C2119.265,280.845,2119.307,281.671,2119.307,282.508Zm9.047-13.952a3.279,3.279,0,0,1-.067-.445c0-1.477-.015-2.953,0-4.43.008-.616.382-.867,1.007-.747a8.129,8.129,0,0,1,3.335,1.418c.1.076.22.136.341.209l.586-.66a9.169,9.169,0,0,0-14.838,8.582h1.173c-.02-.2-.031-.367-.053-.53a8.111,8.111,0,0,1,6.243-8.943c.779-.173,1.1.085,1.1.893,0,1.3,0,2.592,0,3.887a1.854,1.854,0,0,1-.277,1.346Zm-11.575,14.091c-.512-.084-.816-.3-.81-.776a.652.652,0,0,1,.563-.669c.52-.1.749.248.906.663a1,1,0,0,0,.464-1.015,2.555,2.555,0,0,1,.089-1.2,1.8,1.8,0,0,0-.254-1.828,10.5,10.5,0,0,1-.735-2.179.655.655,0,0,1-.845-.192.98.98,0,0,1-.111-.742c.16-.464.595-.468.96-.383.1-.633.183-1.216.287-1.9a6.732,6.732,0,0,0-3.619,5.255,6.635,6.635,0,0,0,2.286,5.88Zm9.042-18.124a6.461,6.461,0,0,0-3.283,2.313,6.649,6.649,0,0,0-1.213,5.627.433.433,0,0,0,.139.27c.408.23.829.437,1.373.718a6.8,6.8,0,0,1-.4-1.065,1.672,1.672,0,0,1,.045-.893.828.828,0,0,0,.091-.563.647.647,0,0,1,.419-.8.673.673,0,0,1,.865.276,2.664,2.664,0,0,1,.161.3c.3-.235.759-.082.9-.623a12.465,12.465,0,0,1,.739-1.716,1.154,1.154,0,0,0,.154-.4C2125.826,266.833,2125.82,265.7,2125.82,264.524Zm4.352,10.082a2.512,2.512,0,0,0-1.12-1.694.654.654,0,0,1-.24-.944,2.082,2.082,0,0,0-.24-2,2.736,2.736,0,0,0-2.01,1.482.854.854,0,0,1-.714.3,3.691,3.691,0,0,0-2,.5l.188.449c1.008-.042,1.969-.092,2.929-.118.573-.016.822.238.846.813a10.175,10.175,0,0,1,.025,1.038c-.024.4.2.6.528.552C2128.965,274.912,2129.551,274.745,2130.172,274.606Zm-.438-6.5c.659-.581.659-.581.692-1.239.018-.368.31-.729.656-.668.545.1.671-.3.983-.673l-2.413-1.2C2129.7,265.659,2129.585,266.831,2129.733,268.1Zm-1.49,11.522.781-.46-.451-.775-.781.457Zm16.557-.139c.015-.3.029-.58.045-.9h-.9v.848Zm-3.213,7.052h-.9v.861h.847C2141.553,287.13,2141.568,286.866,2141.587,286.536Zm-8.595,7.074c-.015.334-.027.6-.041.9l.9.056v-.9Z" transform="translate(-2106.098 -256.19)"/><path class="a" d="M2112.616,236.845c.828.039,1.656.07,2.482.12a.68.68,0,0,1,.726.7c-.007.413-.3.655-.8.662-1.459.021-2.926-.047-4.375.087a20.217,20.217,0,0,0-9.279,3.272,20.827,20.827,0,0,0-9.328,12.9c-2.022,8.527.24,15.861,6.712,21.8a20.239,20.239,0,0,0,12.213,5.311,21.285,21.285,0,0,0,18.452-7.259,20.479,20.479,0,0,0,5.244-11.4,21.306,21.306,0,0,0-6.346-18.572,20.958,20.958,0,0,0-9.146-5.348,2.888,2.888,0,0,1-.467-.166.627.627,0,0,1-.381-.776.613.613,0,0,1,.7-.5,2.078,2.078,0,0,1,.438.1c7.438,2.292,12.721,7.012,15.356,14.329a23.156,23.156,0,0,1-17.339,30.658,23.153,23.153,0,0,1-11.1-44.892A24.787,24.787,0,0,1,2112.616,236.845Z" transform="translate(-2089.942 -236.845)"/><path class="a" d="M2243.029,329.59c1.617,0,1.822.2,1.822,1.815,0,1.676-.183,1.857-1.87,1.857-1.582,0-1.8-.216-1.8-1.792v-.045C2241.183,329.787,2241.381,329.59,2243.029,329.59Zm-.44,2.261h.867V331h-.867Z" transform="translate(-2213.827 -312.814)"/><path class="a" d="M2245.533,365.556a4.211,4.211,0,0,1,.494-.76,9.852,9.852,0,0,1,1.072-.895,1.047,1.047,0,0,1,1.562.125c.332.368.646.754.941,1.152a1.019,1.019,0,0,1-.162,1.519c-.368.332-.753.646-1.149.945a.97.97,0,0,1-1.386-.056,15.878,15.878,0,0,1-1.165-1.429A2.4,2.4,0,0,1,2245.533,365.556Zm2.252-.438-.7.573.579.7.7-.576Z" transform="translate(-2217.39 -340.682)"/><path class="a" d="M2214.456,398.41c.4.033.81.058,1.213.1a1.016,1.016,0,0,1,1,1.11,14.93,14.93,0,0,1-.111,1.573,1.009,1.009,0,0,1-1.114.945c-.51-.013-1.021-.051-1.529-.109a1,1,0,0,1-.973-1.085,13.836,13.836,0,0,1,.114-1.618C2213.145,398.643,2213.579,398.379,2214.456,398.41Zm-.066,1.367-.071.9.887.085c.029-.32.054-.6.081-.9Z" transform="translate(-2190.692 -369.184)"/><path class="a" d="M2233.168,305.571a.739.739,0,0,1,.693.751.73.73,0,0,1-.76.68.717.717,0,0,1,.067-1.431Z" transform="translate(-2206.665 -293.14)"/><path class="a" d="M2233.859,322.256a.727.727,0,0,1-.7.731.7.7,0,0,1-.723-.7.715.715,0,0,1,.689-.737A.744.744,0,0,1,2233.859,322.256Z" transform="translate(-2206.663 -306.231)"/><path class="a" d="M2266.736,436.847a.7.7,0,0,1-.681-.7.689.689,0,0,1,.679-.654.675.675,0,0,1,.673.7A.682.682,0,0,1,2266.736,436.847Z" transform="translate(-2234.2 -399.562)"/><path class="a" d="M2266.732,423.906a.684.684,0,0,1-.678-.7.71.71,0,0,1,.682-.657.682.682,0,0,1,.669.706A.669.669,0,0,1,2266.732,423.906Z" transform="translate(-2234.198 -388.962)"/><path class="a" d="M2305.442,340.21a.67.67,0,0,1-.659.663.69.69,0,0,1-.693-.684.714.714,0,0,1,.67-.669A.682.682,0,0,1,2305.442,340.21Z" transform="translate(-2265.355 -320.949)"/><path class="a" d="M2297.887,376.785a.667.667,0,0,1-.644.675.674.674,0,0,1-.709-.659.705.705,0,0,1,.693-.688A.687.687,0,0,1,2297.887,376.785Z" transform="translate(-2259.166 -350.922)"/><path class="a" d="M2273.026,351.086a.7.7,0,0,1,.687.647.668.668,0,0,1-.664.7.653.653,0,0,1-.678-.636A.678.678,0,0,1,2273.026,351.086Z" transform="translate(-2239.373 -330.423)"/><path class="a" d="M2297.887,395.508a.676.676,0,0,1-.705.664.692.692,0,0,1-.647-.683.681.681,0,0,1,.71-.658A.663.663,0,0,1,2297.887,395.508Z" transform="translate(-2259.167 -366.254)"/><path class="a" d="M2208.819,449.582a.707.707,0,0,1-.691.691.681.681,0,0,1-.661-.668.658.658,0,0,1,.638-.677A.675.675,0,0,1,2208.819,449.582Z" transform="translate(-2186.209 -410.566)"/><path class="a" d="M2229.788,379.9a.685.685,0,0,1-.653.673.656.656,0,0,1-.7-.664.663.663,0,0,1,.641-.678A.7.7,0,0,1,2229.788,379.9Z" transform="translate(-2203.388 -353.476)"/><path class="a" d="M2248.906,316.4a.661.661,0,0,1-.709.651.683.683,0,0,1-.642-.683.707.707,0,0,1,.674-.662A.676.676,0,0,1,2248.906,316.4Z" transform="translate(-2219.046 -301.443)"/><path class="a" d="M2185.539,388.57a.653.653,0,0,1-.674-.684.665.665,0,0,1,.659-.659.684.684,0,0,1,.68.69A.665.665,0,0,1,2185.539,388.57Z" transform="translate(-2167.695 -360.026)"/><path class="a" d="M2281.516,423.909a.657.657,0,0,1-.667-.648.682.682,0,0,1,.665-.7.7.7,0,0,1,.675.657A.673.673,0,0,1,2281.516,423.909Z" transform="translate(-2246.318 -388.966)"/><path class="a" d="M2139.956,356.51a.724.724,0,0,1-.727-.711.744.744,0,0,1,.724-.723.715.715,0,0,1,.695.7A.7.7,0,0,1,2139.956,356.51Z" transform="translate(-2130.314 -333.69)"/><path class="a" d="M2186.764,296.795a.724.724,0,0,1-.729-.71.718.718,0,1,1,.729.71Z" transform="translate(-2168.655 -284.795)"/></svg>