<svg xmlns="http://www.w3.org/2000/svg" width="20.472" height="20.472" viewBox="0 0 20.472 20.472"><defs><style>.a{fill:#f07f3c;}</style></defs><path class="a" d="M20.472,13.855a6.633,6.633,0,0,0-4.846-6.377A7.817,7.817,0,1,0,1.084,11.79L.029,15.6,3.844,14.55a7.788,7.788,0,0,0,3.634,1.076,6.619,6.619,0,0,0,9.744,3.926l3.221.891-.891-3.221A6.594,6.594,0,0,0,20.472,13.855Zm-16.439-.6-2.284.632L2.381,11.6l-.144-.225A6.615,6.615,0,1,1,4.258,13.4Zm14.69,5.47-1.695-.469L16.8,18.4a5.42,5.42,0,0,1-8.084-2.82,7.832,7.832,0,0,0,6.864-6.864A5.42,5.42,0,0,1,18.4,16.8l-.147.226Zm0,0"/><path class="a" d="M180.5,271h1.2v1.2h-1.2Zm0,0" transform="translate(-173.283 -260.164)"/><path class="a" d="M139.1,92.4a1.187,1.187,0,0,1-.39.885L137.3,94.574v1.464h1.2V95.1l1.019-.933A2.4,2.4,0,1,0,135.5,92.4h1.2a1.2,1.2,0,1,1,2.4,0Zm0,0" transform="translate(-130.082 -86.401)"/></svg>