<svg xmlns="http://www.w3.org/2000/svg" width="184.522" height="96.152" viewBox="0 0 184.522 96.152"><defs><style>.a{fill:#231f20;}</style></defs><g transform="translate(1017.652 1100.088)"><path class="a" d="M-988.009-1022.429a10.252,10.252,0,0,0-8.5,4.188,13.406,13.406,0,0,0-.987,1.4q-.493-.8-.923-1.387a10.2,10.2,0,0,0-8.49-4.205,10.41,10.41,0,0,0-7.569,3.128,10.324,10.324,0,0,0-3.127,7.543v25.588a1.145,1.145,0,0,0,1.258,1.208,1.121,1.121,0,0,0,1.208-1.208v-25.588a7.828,7.828,0,0,1,2.415-5.789,7.856,7.856,0,0,1,5.814-2.415,7.779,7.779,0,0,1,5.789,2.415,7.831,7.831,0,0,1,2.415,5.789v25.318a1.145,1.145,0,0,0,1.259,1.208,1.121,1.121,0,0,0,1.208-1.208v-25.318a7.827,7.827,0,0,1,2.416-5.789,7.859,7.859,0,0,1,5.814-2.415,7.781,7.781,0,0,1,5.789,2.415,7.83,7.83,0,0,1,2.415,5.789v25.318a1.121,1.121,0,0,0,1.209,1.208h.075a1.11,1.11,0,0,0,1.184-1.208v-25.318a10.325,10.325,0,0,0-3.128-7.543,10.325,10.325,0,0,0-7.543-3.128" transform="translate(-0.031 -51.439)"/><path class="a" d="M-868.722-1099.28a1.121,1.121,0,0,0-1.209,1.208v50.691a7.821,7.821,0,0,1-2.44,5.814,7.89,7.89,0,0,1-5.839,2.415,7.886,7.886,0,0,1-5.838-2.415,7.928,7.928,0,0,1-2.44-5.865v-13.832a1.145,1.145,0,0,0-1.259-1.208,1.121,1.121,0,0,0-1.208,1.208v13.832a10.425,10.425,0,0,0,3.152,7.619,10.4,10.4,0,0,0,7.593,3.153,10.573,10.573,0,0,0,6.38-2.1,9.658,9.658,0,0,0,1.9-1.825v13.9a7.88,7.88,0,0,1-2.463,5.811,7.921,7.921,0,0,1-5.816,2.443,9.255,9.255,0,0,1-4.677-1.252,8.4,8.4,0,0,1-3.284-3.347,1.125,1.125,0,0,0-1.052-.645,1.7,1.7,0,0,0-.331.035c-.022.005-.043.01-.065.018l-.134.038a.559.559,0,0,0-.109.04,1.379,1.379,0,0,0-.607.7,1.1,1.1,0,0,0,.069.964,10.416,10.416,0,0,0,4.154,4.366,11.766,11.766,0,0,0,6.036,1.6,10.381,10.381,0,0,0,7.544-3.228,10.378,10.378,0,0,0,3.228-7.543v-71.388a1.157,1.157,0,0,0-1.284-1.208" transform="translate(-85.244 -0.535)"/><path class="a" d="M-742-1022.727a10.252,10.252,0,0,0-8.5,4.188,13.487,13.487,0,0,0-.987,1.4q-.494-.8-.923-1.387a10.2,10.2,0,0,0-8.489-4.205,10.408,10.408,0,0,0-7.569,3.128,10.325,10.325,0,0,0-3.128,7.543v25.318a1.145,1.145,0,0,0,1.259,1.208,1.122,1.122,0,0,0,1.209-1.208v-25.318a7.828,7.828,0,0,1,2.415-5.789,7.859,7.859,0,0,1,5.814-2.415,7.779,7.779,0,0,1,5.789,2.415,7.829,7.829,0,0,1,2.415,5.789v25.318a1.145,1.145,0,0,0,1.259,1.208,1.121,1.121,0,0,0,1.209-1.208v-25.318a7.829,7.829,0,0,1,2.415-5.789A7.859,7.859,0,0,1-742-1020.26a7.779,7.779,0,0,1,5.789,2.415,7.831,7.831,0,0,1,2.415,5.789v57.56a1.121,1.121,0,0,0,1.208,1.208h.075a1.11,1.11,0,0,0,1.183-1.208v-57.56a10.325,10.325,0,0,0-3.127-7.543,10.324,10.324,0,0,0-7.544-3.128" transform="translate(-162.98 -51.242)"/><path class="a" d="M-622.2-974.753a1.181,1.181,0,0,0-1.2.83,10.594,10.594,0,0,1-3.927,5.188,10.4,10.4,0,0,1-6.18,2,10.191,10.191,0,0,1-8.462-4.113,6.741,6.741,0,0,1-.845-1.2l.434-.187c.355-.178.645-.315.878-.415q3.3-1.474,9.69-4.37c4.258-1.927,7.442-3.355,9.733-4.368a1.137,1.137,0,0,0,.615-.718,1.2,1.2,0,0,0-.071-.892A12.964,12.964,0,0,0-626.4-988.6a12.868,12.868,0,0,0-7.107-2.109,12.7,12.7,0,0,0-9.316,3.875,12.705,12.705,0,0,0-3.878,9.318,12.7,12.7,0,0,0,3.877,9.317,12.7,12.7,0,0,0,9.316,3.876,12.993,12.993,0,0,0,7.625-2.421,12.957,12.957,0,0,0,4.812-6.372,1.169,1.169,0,0,0-.152-1.116,1.113,1.113,0,0,0-.975-.522M-641.074-985l0,0a10.349,10.349,0,0,1,7.562-3.139,10.2,10.2,0,0,1,8.192,3.819,11.447,11.447,0,0,1,.958,1.232l-9.694,4.364q-6.351,2.864-9.733,4.4a9.084,9.084,0,0,1-.354-1.559,12.724,12.724,0,0,1-.1-1.557A10.31,10.31,0,0,1-641.074-985" transform="translate(-245.704 -72.45)"/><path class="a" d="M-543.52-986.831a12.707,12.707,0,0,0-9.317-3.878,12.7,12.7,0,0,0-9.316,3.876,12.7,12.7,0,0,0-3.877,9.318,12.7,12.7,0,0,0,3.875,9.315,12.7,12.7,0,0,0,9.318,3.878,12.7,12.7,0,0,0,8.714-3.3,12.967,12.967,0,0,0,1.879-2.028.073.073,0,0,1,.132.042v4.08a1.11,1.11,0,0,0,1.184,1.208,1.283,1.283,0,0,0,1.283-1.283v-11.91a12.7,12.7,0,0,0-3.875-9.316m-16.881,1.755a10.593,10.593,0,0,1,9.1-3.024,9.755,9.755,0,0,1,4.91,2.038,10.524,10.524,0,0,1,4.276,8.547,10.311,10.311,0,0,1-3.164,7.562,10.352,10.352,0,0,1-7.562,3.14,10.352,10.352,0,0,1-7.563-3.141,10.311,10.311,0,0,1-3.163-7.56,10.31,10.31,0,0,1,3.163-7.561" transform="translate(-299.14 -72.449)"/><path class="a" d="M-866.5-890.655h-142.536a8.5,8.5,0,0,1-8.495-8.495v-28.679a1.2,1.2,0,0,1,1.2-1.2,1.2,1.2,0,0,1,1.2,1.2v28.679a6.1,6.1,0,0,0,6.089,6.089H-866.5a1.2,1.2,0,0,1,1.2,1.2,1.2,1.2,0,0,1-1.2,1.2" transform="translate(-0.081 -113.303)"/><path class="a" d="M-813.729-1036.781a1.2,1.2,0,0,1-1.2-1.2v-53.627a6.076,6.076,0,0,0-6.07-6.07H-985.344a1.2,1.2,0,0,1-1.2-1.2,1.2,1.2,0,0,1,1.2-1.2H-821a8.485,8.485,0,0,1,8.475,8.476v53.627a1.2,1.2,0,0,1-1.2,1.2" transform="translate(-20.603 -0.001)"/><path class="a" d="M-1016.449-1082.429a1.2,1.2,0,0,1-1.2-1.2v-7.981a8.485,8.485,0,0,1,8.476-8.476h151.129a1.2,1.2,0,0,1,1.2,1.2,1.2,1.2,0,0,1-1.2,1.2h-151.129a6.077,6.077,0,0,0-6.071,6.07v7.981a1.2,1.2,0,0,1-1.2,1.2"/><path class="a" d="M-795.518-849.948H-946.648a1.2,1.2,0,0,1-1.2-1.2,1.2,1.2,0,0,1,1.2-1.2h151.129a6.077,6.077,0,0,0,6.07-6.07V-866.4a1.2,1.2,0,0,1,1.2-1.2,1.2,1.2,0,0,1,1.2,1.2v7.981a8.485,8.485,0,0,1-8.476,8.476" transform="translate(-46.235 -153.988)"/></g></svg>