<svg xmlns="http://www.w3.org/2000/svg" width="15.966" height="16" viewBox="0 0 15.966 16"><path d="M7.983,5.481a2.906,2.906,0,0,1,2.91,2.894,2.783,2.783,0,0,1-.851,2.043,2.806,2.806,0,0,1-2.059.851,2.806,2.806,0,0,1-2.059-.851,2.877,2.877,0,0,1,0-4.085A2.8,2.8,0,0,1,7.983,5.481ZM14.468,7.66h1.5V9.09h-1.5a6.282,6.282,0,0,1-1.855,3.9,6.44,6.44,0,0,1-3.9,1.889v1.5H7.251v-1.5A6.491,6.491,0,0,1,3.37,12.988,6.242,6.242,0,0,1,1.5,9.09H0V7.66H1.5a6.243,6.243,0,0,1,1.872-3.9A6.488,6.488,0,0,1,7.251,1.873V.375H8.715v1.5a6.445,6.445,0,0,1,3.9,1.889A6.277,6.277,0,0,1,14.468,7.66ZM8,13.447a4.89,4.89,0,0,0,3.591-1.481,4.892,4.892,0,0,0,1.481-3.592,4.887,4.887,0,0,0-1.481-3.591A4.9,4.9,0,0,0,8,3.3,4.943,4.943,0,0,0,4.391,4.783a4.864,4.864,0,0,0-1.5,3.592,4.863,4.863,0,0,0,1.5,3.591A4.947,4.947,0,0,0,8,13.447Z" transform="translate(0 -0.375)"/></svg>