<svg xmlns="http://www.w3.org/2000/svg" width="21.65" height="21.65" viewBox="0 0 21.65 21.65"><defs><style>.a{fill:#f07f3c;}</style></defs><path class="a" d="M18.48,3.171A10.825,10.825,0,0,0,3.171,18.48,10.825,10.825,0,0,0,18.48,3.171ZM5.427,18.707a5.481,5.481,0,0,1,10.8,0,9.536,9.536,0,0,1-10.8,0Zm1.956-9.24a3.442,3.442,0,1,1,3.442,3.442A3.446,3.446,0,0,1,7.383,9.466Zm9.939,8.36a6.761,6.761,0,0,0-3.93-4.412,4.711,4.711,0,1,0-5.133,0,6.76,6.76,0,0,0-3.93,4.412,9.557,9.557,0,1,1,12.994,0Zm0,0"/></svg>