<svg xmlns="http://www.w3.org/2000/svg" width="19.68" height="17.572" viewBox="0 0 19.68 17.572"><defs><style>.a{fill:#f07f3c;}</style></defs><g transform="translate(-2.25 -3.375)"><path class="a" d="M24.75,19.125h1.406v1.406H24.75Z" transform="translate(-8.443 -5.91)"/><path class="a" d="M20.524,6.889H3.656V4.781H19.119V3.375H3.656A1.406,1.406,0,0,0,2.25,4.781v14.76a1.406,1.406,0,0,0,1.406,1.406H20.524a1.406,1.406,0,0,0,1.406-1.406V8.3A1.406,1.406,0,0,0,20.524,6.889ZM3.656,19.541V8.3H20.524V10.4H14.9A1.406,1.406,0,0,0,13.5,11.809v4.217A1.406,1.406,0,0,0,14.9,17.432h5.623v2.109Zm16.869-7.731v4.217H14.9V11.809Z" transform="translate(0)"/></g></svg>